<?xml version="1.0" encoding="UTF-8"?>
<!DOCTYPE svg PUBLIC "-//W3C//DTD SVG 1.1//EN" "http://www.w3.org/Graphics/SVG/1.1/DTD/svg11.dtd">
<!-- Creator: CorelDRAW X7 -->
<svg xmlns="http://www.w3.org/2000/svg" xml:space="preserve" width="1300px" height="804px" version="1.1" style="shape-rendering:geometricPrecision; text-rendering:geometricPrecision; image-rendering:optimizeQuality; fill-rule:evenodd; clip-rule:evenodd"
viewBox="0 0 1300 804"
 xmlns:xlink="http://www.w3.org/1999/xlink">
 <defs>
  <style type="text/css">
   <![CDATA[
    .fil0 {fill:#006EC7}
   ]]>
  </style>
 </defs>
 <g id="Warstwa_x0020_1">
  <metadata id="CorelCorpID_0Corel-Layer"/>
  <path class="fil0" d="M1053 319c-68,29 -107,98 -101,168l0 0c1,1 1,3 1,4 3,6 9,8 15,6 4,-2 7,-7 6,-12l0 0c-5,-61 29,-121 88,-146 29,-13 60,-15 89,-8l0 0c25,6 47,23 58,48 10,25 8,52 -4,74l-1 0c-4,8 -12,14 -21,18 -18,8 -38,3 -50,-11l0 0c-1,-2 -2,-3 -3,-5 -4,-10 0,-21 10,-26l0 0 0 0 1 0c2,-1 4,0 5,2 1,3 0,5 -2,6l0 0 0 1c-4,2 -5,7 -4,12 3,5 9,8 14,6l0 -1 0 1c12,-6 17,-21 12,-33 -6,-13 -21,-19 -34,-13l0 0 0 -1c-21,9 -31,34 -22,55 2,3 4,7 7,10l0 0c18,21 48,29 75,17 13,-5 24,-15 31,-26l0 0c16,-28 19,-62 6,-94 -14,-32 -41,-53 -73,-61l0 0c-33,-8 -69,-6 -103,9zm-946 -225l-17 0 0 29 15 0c12,0 18,-5 18,-15 0,-9 -6,-14 -16,-14zm14 -29c0,-9 -6,-14 -17,-14l-14 0 0 28 17 0c8,-1 14,-6 14,-14zm-58 598l26 0 19 44 5 14 4 -14 18 -44 26 0 1 105 -22 0 0 -43 2 -34 -22 55 -15 0 -22 -55 2 34 0 43 -22 0 0 -105zm305 8l0 0c0,-2 1,-4 2,-5 2,-2 4,-2 6,-2l64 0 0 17 -49 0 0 26 38 0 0 17 -38 0 0 27 49 0 0 18 -64 0c-2,0 -4,0 -6,-2 -2,-2 -2,-4 -2,-6l0 0 0 -90zm274 -1l0 0c0,-2 0,-4 2,-5 2,-2 4,-2 6,-2l0 0 28 0c32,0 46,19 46,53 0,34 -14,53 -46,53l-28 0c-2,0 -5,0 -6,-2 -1,-1 -2,-3 -2,-5l0 0 0 -92zm284 -7l23 0 0 105 -23 0 0 -105zm251 0l27 0 32 106 -23 0 -23 -82 -22 82 -24 0 33 -106zm-1177 141l1300 0 0 -175 -1300 0 0 175zm91 -336l0 -119 200 59 -200 60zm237 -69c-2,-1 -4,-2 -7,-3l0 0 -236 -74c-1,0 -3,-1 -4,-1l-1 0 0 0c-3,0 -6,1 -9,3 -2,2 -3,5 -3,8l0 0 0 151 0 0c0,3 1,6 3,8 3,2 6,3 9,3l0 0 242 -75 0 -1c2,0 4,-1 6,-3 4,-4 4,-11 0,-16zm904 -347l-49 0 0 26 38 0 0 17 -38 0 0 27 49 0 0 18 -65 0c-2,0 -4,0 -5,-2 -2,-2 -2,-4 -2,-6l0 0 0 -90 0 0c0,-2 0,-4 2,-5 2,-2 4,-2 6,-2l64 0 0 17zm-365 38c0,31 -6,51 -41,51 -35,0 -42,-20 -42,-51l0 -55 23 0 0 55c0,22 3,34 19,34 15,0 18,-12 18,-34l0 -55 23 0 0 55zm-365 50l-59 0 0 0c-2,0 -4,-1 -5,-2 -1,-1 -2,-3 -2,-5l0 0 0 -98 22 0 0 86 44 0 0 19zm-396 0l-32 0 0 0c-2,0 -4,-1 -5,-2 -2,-2 -2,-4 -2,-6l0 -89c0,-2 0,-4 2,-6 1,-2 4,-2 6,-2l31 0c25,0 37,11 37,28 0,9 -5,17 -12,21 9,4 16,14 16,25 0,17 -12,31 -41,31zm-106 -140l0 175 1300 0 0 -175 -1300 0zm677 432l24 72 -62 -44 -60 45 23 -72 -61 -45 76 0 23 -72 23 72 75 0 -61 44zm104 -62c-2,-3 -6,-4 -10,-3l-92 0 -28 -88 0 0c-1,-2 -2,-4 -3,-6 -5,-4 -12,-4 -16,0 -2,2 -3,4 -3,6l0 0 -29 88 -93 0c-3,0 -7,1 -9,3 -4,5 -4,12 0,16 1,1 2,2 3,2l75 54 -30 90 1 1c-2,3 -1,8 2,11 5,4 12,4 16,0l0 0 74 -55 77 55c4,3 10,3 14,-1 4,-3 5,-9 2,-13l-28 -88 77 -56 0 0 0 0c5,-4 5,-12 0,-16zm-81 346c0,-24 -6,-35 -22,-35l-13 0 0 70 13 0c16,0 22,-11 22,-35z"/>
 </g>
</svg>
